<svg width="25" height="24" viewBox="0 0 25 24" fill="none" xmlns="http://www.w3.org/2000/svg">
<path d="M12.4261 2.90967C9.00473 2.90967 6.2242 5.59967 6.2242 8.90967V11.7997C6.2242 12.4097 5.95545 13.3397 5.63501 13.8597L4.44631 15.7697C3.71242 16.9497 4.21891 18.2597 5.56266 18.6997C10.0177 20.1397 14.8242 20.1397 19.2792 18.6997C20.53 18.2997 21.0778 16.8697 20.3956 15.7697L19.2069 13.8597C18.8968 13.3397 18.628 12.4097 18.628 11.7997V8.90967C18.628 5.60967 15.8372 2.90967 12.4261 2.90967Z" stroke="black" stroke-width="1.5" stroke-miterlimit="10" stroke-linecap="round"/>
<path d="M14.3401 3.20043C14.0197 3.11043 13.6889 3.04043 13.3478 3.00043C12.3555 2.88043 11.4046 2.95043 10.5156 3.20043C10.8154 2.46043 11.5596 1.94043 12.4279 1.94043C13.2962 1.94043 14.0404 2.46043 14.3401 3.20043Z" stroke="black" stroke-width="1.5" stroke-miterlimit="10" stroke-linecap="round" stroke-linejoin="round"/>
<path d="M15.53 19.0596C15.53 20.7096 14.1346 22.0596 12.4291 22.0596C11.5815 22.0596 10.7959 21.7196 10.2377 21.1796C9.67957 20.6396 9.32812 19.8796 9.32812 19.0596" stroke="black" stroke-width="1.5" stroke-miterlimit="10"/>
</svg>
