<svg width="25" height="28" viewBox="0 0 25 28" fill="none" xmlns="http://www.w3.org/2000/svg">
<path d="M10.4089 6.82009L3.24563 12.3701C2.43938 12.9901 1.92256 14.3001 2.09828 15.2801L3.47304 23.2401C3.72112 24.6601 5.12688 25.8101 6.61534 25.8101H18.1923C19.6704 25.8101 21.0865 24.6501 21.3346 23.2401L22.7093 15.2801C22.8747 14.3001 22.3579 12.9901 21.562 12.3701L14.3988 6.8301C13.2927 5.9701 11.5045 5.97009 10.4089 6.82009Z" stroke="black" stroke-width="1.5" stroke-linecap="round" stroke-linejoin="round"/>
<path d="M12.404 19.5C13.8311 19.5 14.9881 18.3807 14.9881 17C14.9881 15.6193 13.8311 14.5 12.404 14.5C10.9768 14.5 9.81982 15.6193 9.81982 17C9.81982 18.3807 10.9768 19.5 12.404 19.5Z" stroke="black" stroke-width="1.5" stroke-linecap="round" stroke-linejoin="round"/>
</svg>
